<svg width="25" height="24" xmlns="http://www.w3.org/2000/svg">
    <g fill-rule="nonzero" fill="none">
        <path d="M5.8 14.5L5 17.6H2a12 12 0 01-.2-11.1l2.8.5 1.2 2.7a7.1 7.1 0 000 4.8z" fill="#FBBB00"/>
        <path d="M24.3 9.8A12 12 0 0120 21.4l-3.4-.2-.5-3a7.2 7.2 0 003-3.7h-6.3V9.8h11.5z" fill="#518EF8"/>
        <path d="M20 21.4a12 12 0 01-18-3.7l3.8-3.2a7.1 7.1 0 0010.3 3.7l4 3.2z" fill="#28B446"/>
        <path d="M20.2 2.8l-4 3.1A7.1 7.1 0 005.8 9.6L1.9 6.6a12 12 0 0118.4-3.7z" fill="#F14336"/>
    </g>
</svg>